# Made in Blockbench 4.11.1
mtllib grinding_mill.mtl

o cube
v -1.5 4 1.5
v -1.5 4 -1.5
v -1.5 3 1.5
v -1.5 3 -1.5
v -2 4 1.5
v -2 4 -1.5
v -2 3 1.5
v -2 3 -1.5
v -1.5 2 1.5
v -2 2 1.5
v -1.5 2 -1.5
v -2 2 -1.5
v -0.5 4 0.5
v -0.5 4 -0.5
v -0.5 3.5 1
v -0.5 3.5 -1
v -1.5 4 0.5
v -1.5 4 -0.5
v -1.5 3.5 1
v -1.5 3.5 -1
v 0.5 4 0.5
v 0.5 4 -0.5
v 0.5 3.5 1
v 0.5 3.5 -1
v 0.5 4 -0.001899564712736057
v 0.5 3.5 0.00032974981534905634
v -2 2 1
v -2 1 1
v -2 1 -1.5
v -2 1.5 -1.5
v -2 1.5 -0.25
v -2 2 -0.25
v -2 1 -0.25
v -2 1.5 1
v -1.75 2 1
v -1.75 2 -1.5
v -1.75 1 1
v -1.75 1 -1.5
v -1.75 1.5 -1.5
v -1.75 2 -0.25
v -1.75 1 -0.25
v -1.75 1.5 1
v -1.5 2 1
v -1.5 1 1
v -1.5 1 -1.5
v -1.5 1.5 -1.5
v -1.5 2 -0.25
v -1.5 1 -0.25
v -1.5 1.5 1
v -1.5 1.5 -0.25
v 0.5 1.5 0.5
v 0.5 1.5 -0.5
v 0.5 2 1
v 0.5 2 -1
v -0.5 1.5 0.5
v -0.5 1.5 -0.5
v -0.5 2 1
v -0.5 2 -1
v 0.5 1.5 -0.001899564712736057
v 0.5 2 0.00032974981534905634
v -1.5 1.5 0.5
v -1.5 1.5 -0.5
v -1.5 2 -1
v 1 1 0.5
v 1 1 -0.5
v 0.5 0.5 0.5
v 0.5 0.5 -0.5
v 1 0.5 0.5
v 1 0.5 -0.5
v -0.5 0.75 0.5
v -0.5 0.75 -0.5
v -1.5 1 0.5
v -1.5 1 -0.5
v 0.5 0.5 1.5
v 0.5 0.5 -1.5
v 0.5 0 1.5
v 0.5 0 -1.5
v -1.5 0.5 1.5
v -1.5 0.5 -1.5
v -1.5 0 1.5
v -1.5 0 -1.5
v -1.5 1 1.5
v -2.5 1 1.5
v -2.5 1 -1.5
v -2.5 0 1.5
v -2.5 0 -1.5
v 1.5 0.5 1.5
v 1.5 0.5 0.5
v 1.5 0 1.5
v 1.5 0 0.5
v 0.5 0 0.5
v 1.5 0.5 -0.5
v 1.5 0.5 -1.5
v 1.5 0 -0.5
v 1.5 0 -1.5
v 0.5 0 -0.5
v 1.5 1 0.5
v 1.5 1 -0.5
v 1 0 0.5
v 1 0 -0.5
v -2.5 2 1.5
v -2.5 2 1
v -2.5 1 1
v -0.125 4.875 0.375
v -0.125 4.875 -0.375
v -0.125 4 0.375
v -0.125 4 -0.375
v -0.875 4.875 0.375
v -0.875 4.875 -0.375
v -0.875 4 0.375
v -0.875 4 -0.375
v -0.875 4.125 0.375
v -0.875 4.125 -0.375
v -2 4.875 0.375
v -2 4.875 -0.375
v -2 4.125 0.375
v -2 4.125 -0.375
v -1.5 4.125 0.125
v -1.5 4.125 -0.125
v -1.5 4 0.125
v -1.5 4 -0.125
v -2 4.125 0.125
v -2 4.125 -0.125
v -2 4 0.125
v -2 4 -0.125
v -2.5 4.875 0.375
v -2.5 4.875 -0.375
v -2.5 4.125 0.375
v -2.5 4.125 -0.375
v -1.5 3.5 0.5
v -1.5 3.5 -0.5
v -1.5 2.5 0.5
v -1.5 2.5 -0.5
v -2.5 3.5 0.5
v -2.5 3.5 -0.5
v -2.5 2.5 0.5
v -2.5 2.5 -0.5
vt 0.375 0.6875
vt 0.375 0.8125
vt 0 0.8125
vt 0 0.6875
vt 0.375 0.6875
vt 0.375 0.8125
vt 0 0.8125
vt 0 0.6875
vt 0.6171875 0.5546875
vt 0.6171875 0.6796875
vt 0.5546875 0.6796875
vt 0.5546875 0.5546875
vt 0.5 0
vt 0.5 1
vt 0 1
vt 0 0
vt 0.6171875 0.5546875
vt 0.6171875 0.6796875
vt 0.5546875 0.6796875
vt 0.5546875 0.5546875
vt 0.625 0.5546875
vt 0.625 0.6796875
vt 0.5625 0.6796875
vt 0.5625 0.5546875
vt 0 0.625
vt 0.375 0.625
vt 0.375 0.75
vt 0 0.75
vt 0.5546875 0.5546875
vt 0.6171875 0.5546875
vt 0.6171875 0.6796875
vt 0.5546875 0.6796875
vt 0 0.625
vt 0.375 0.625
vt 0.375 0.75
vt 0 0.75
vt 0.5625 0.5546875
vt 0.625 0.5546875
vt 0.625 0.6796875
vt 0.5625 0.6796875
vt 1 0.5
vt 1 1
vt 0 1
vt 0 0.5
vt 0 0
vt 1 0
vt 1 1
vt 0 1
vt 1 0
vt 1 1
vt 0 1
vt 0 0
vt 1 0.5
vt 1 1
vt 0 1
vt 0 0.5
vt 0 1
vt 1 1
vt 1 0.5
vt 0 0.5
vt 1 0.5
vt 1 1
vt 0 1
vt 0 0.5
vt 1 0.5
vt 1 1
vt 0 1
vt 0 0.5
vt 0 1
vt 1 1
vt 1 0.5
vt 0 0.5
vt 0.5 0.5
vt 1 0.5
vt 1 0
vt 0 0
vt 0 0
vt 0 0.5
vt 0.4999999999999999 0.5
vt 0.9999999999999999 0
vt 0 0
vt 1 0
vt 1 0.501899564712736
vt 0 1
vt 1 0.501899564712736
vt 1 1
vt 0 1
vt 0 0
vt 1 0
vt 1 0.5001648749076746
vt 0 1
vt 1 0.5001648749076746
vt 1 1
vt 0 1
vt 0 0.8125
vt 0 0.75
vt 0.15615147228256718 0.7501475984064989
vt 0.15625 0.8124377073396181
vt 0.1558738666486349 0.625
vt 0.15625 0.6875
vt 0 0.6873520522037575
vt 0 0.625
vt 0.375 0.7501878189814473
vt 0.375 0.8125
vt 0.218848589885986 0.8124375598826289
vt 0.21875 0.75
vt 0.21875 0.6873121810185527
vt 0.21875 0.625
vt 0.374901410114014 0.6250624401173711
vt 0.375 0.6875
vt 0.06256420254031725 0.6875000013359497
vt 0.21875 0.687500001336145
vt 0.21868579745968272 0.75
vt 0.0625 0.75
vt 0.37493579745968275 0.8125
vt 0.21875 0.8124999999998046
vt 0.21881420254031728 0.7500000013359497
vt 0.375 0.7500000013359497
vt 0.37493579745968275 0.75
vt 0.21875 0.7499999999998046
vt 0.21881420254031728 0.6875000013359497
vt 0.375 0.6875000013359497
vt 0 0.625
vt 0.03125 0.625
vt 0.03125 0.6875
vt 0 0.6875
vt 0.34375 0.625
vt 0.375 0.625
vt 0.375 0.6875
vt 0.34375 0.6875
vt 0.375 0.75
vt 0.375 0.8125
vt 0.34375 0.8125
vt 0.34375 0.75
vt 0 0.8125
vt 0 0.75
vt 0.03125 0.75
vt 0.03125 0.8125
vt 0.15625 0.78125
vt 0.15625 0.8125
vt 0 0.8125
vt 0 0.78125
vt 0.15625 0.625
vt 0.15625 0.65625
vt 0 0.65625
vt 0 0.625
vt 0.21875 0.625
vt 0.375 0.625
vt 0.375 0.65625
vt 0.21875 0.65625
vt 0.375 0.78125
vt 0.375 0.8125
vt 0.21875 0.8125
vt 0.21875 0.78125
vt 0 0.8125
vt 0 0.78125
vt 0.15625 0.78125
vt 0.15625 0.8125
vt 0 0.625
vt 0.15625 0.625
vt 0.15625 0.65625
vt 0 0.65625
vt 0.375 0.625
vt 0.375 0.65625
vt 0.21875 0.65625
vt 0.21875 0.625
vt 0.21875 0.8125
vt 0.21875 0.78125
vt 0.375 0.78125
vt 0.375 0.8125
vt 0.03125 0.6875
vt 0 0.6875
vt 0 0.625
vt 0.03125 0.625
vt 0.375 0.6875
vt 0.34375 0.6875
vt 0.34375 0.625
vt 0.375 0.625
vt 0.375 0.8125
vt 0.34375 0.8125
vt 0.34375 0.75
vt 0.375 0.75
vt 0 0.8125
vt 0 0.75
vt 0.03125 0.75
vt 0.03125 0.8125
vt 0.0625 0.8125
vt 0.0625 0.75
vt 0.21875 0.75
vt 0.21875 0.8125
vt 0 1
vt 1 1
vt 1 0.5
vt 0 0.5
vt 1 0.5
vt 1 1
vt 0 1
vt 0 0.5
vt 1 0.5000000000000001
vt 1 0
vt 0.4999999999999998 1.1102230246251565e-16
vt 0 0.5000000000000001
vt 0.4999999999999999 0.5
vt 0 0.5
vt 0 0
vt 0.9999999999999999 0
vt 1 0.501899564712736
vt 1 0
vt 0 0
vt 0 1
vt 1 1
vt 1 0.501899564712736
vt 0 1
vt 1 0.5001648749076746
vt 1 0
vt 0 0
vt 0 1
vt 1 1
vt 1 0.5001648749076746
vt 0 1
vt 0 0.5
vt 0 1
vt 1 1
vt 1 0.5
vt 0 1
vt 1 1
vt 1 0.5
vt 0 0.5
vt 0 1
vt 1 1
vt 1 0
vt 0 0
vt 0 1
vt 1 1
vt 1 0.5
vt 0 0.5
vt 1 0.5
vt 1 1
vt 0 1
vt 0 0.5
vt 1 1
vt 0 1
vt 0 0.5
vt 1 0.5
vt 1 0
vt 1 1
vt 0 1
vt 0 0
vt 1 0.5
vt 1 1
vt 0 1
vt 0 0.5
vt 1 1
vt 0 1
vt 0 0.5
vt 1 0.5
vt 1 1
vt 0 1
vt 0 0.5
vt 1 0.5
vt 0 0
vt 1 0
vt 1 1
vt 0 1
vt 1 0
vt 1 1
vt 0 1
vt 0 0
vt 1 0
vt 1 1
vt 0 1
vt 0 0.25
vt 0 1
vt 1 1
vt 1 0
vt 0 0.25
vt 1 1
vt 0 1
vt 0 0.5
vt 1 0.5
vt 1 0.5
vt 1 1
vt 0 1
vt 0 0.5
vt 0 0
vt 1 0
vt 1 1
vt 0 1
vt 1 0
vt 1 1
vt 0 1
vt 0 0
vt 1 0.25
vt 1 1
vt 0 1
vt 0 0.5
vt 0 1
vt 1 1
vt 1 0.25
vt 0 0.5
vt 0.125 0.9375
vt 0.125 1
vt 0 1
vt 0 0.9375
vt 0.125 0.9375
vt 0.125 1
vt 0 1
vt 0 0.9375
vt 0.25 0.625
vt 0.25 1
vt 0 1
vt 0 0.625
vt 0.375 0.25
vt 0.375 0.625
vt 0.125 0.625
vt 0.125 0.25
vt 0.25 0.1875
vt 0.25 0.25
vt 0 0.25
vt 0 0.1875
vt 0 0.1875
vt 0 0.25
vt 0.25 0.25
vt 0.25 0.1875
vt 0.375 0.5625
vt 0.375 0.6875
vt 0 0.6875
vt 0 0.5625
vt 0.375 0.5
vt 0.375 0.625
vt 0 0.625
vt 0 0.5
vt 0.3671875 0.75
vt 0 0.75
vt 0 0.625
vt 0.3671875 0.625
vt 0.125 0.25
vt 0.125 0.625
vt 0 0.625
vt 0 0.25
vt 1 0
vt 1 1
vt 0 1
vt 0 0
vt 1 0
vt 1 1
vt 0 1
vt 0 0
vt 0.625 0.1875
vt 0.625 0.25
vt 0.5 0.25
vt 0.5 0.1875
vt 0.125 0.9375
vt 0.125 1
vt 0 1
vt 0 0.9375
vt 0.625 0.625
vt 0.625 0.75
vt 0.5 0.75
vt 0.5 0.625
vt 0.625 0.5
vt 0.625 0.625
vt 0.5 0.625
vt 0.5 0.5
vt 0.375 0.1875
vt 0.375 0.25
vt 0.25 0.25
vt 0.25 0.1875
vt 0.125 0.9375
vt 0.125 1
vt 0 1
vt 0 0.9375
vt 0.5 0.1875
vt 0.5 0.25
vt 0.625 0.25
vt 0.625 0.1875
vt 1 0.5
vt 1 1
vt 0 1
vt 0 0.5
vt 0.625 0.875
vt 0.625 1
vt 0.5 1
vt 0.5 0.875
vt 0.625 0.25
vt 0.625 0.375
vt 0.5 0.375
vt 0.5 0.25
vt 1 0.5
vt 1 1
vt 0 1
vt 0 0.5
vt 0.25 0.1875
vt 0.25 0.25
vt 0.375 0.25
vt 0.375 0.1875
vt 0.5 0.625
vt 0.5 0.75
vt 0.375 0.75
vt 0.375 0.625
vt 1 0
vt 1 1
vt 0 1
vt 0 0
vt 1 0
vt 1 1
vt 0.5 1
vt 0.5 0
vt 0.625 0.375
vt 0.625 0.5
vt 0.5625 0.5
vt 0.5625 0.375
vt 1 0
vt 1 1
vt 0.5 1
vt 0.5 0
vt 0.5 0
vt 0.5 1
vt 0 1
vt 0 0
vt 0.2890625 0.484375
vt 0.2890625 0.671875
vt 0.0390625 0.671875
vt 0.0390625 0.484375
vt 0.2890625 0.484375
vt 0.2890625 0.671875
vt 0.0390625 0.671875
vt 0.0390625 0.484375
vt 1 0
vt 1 1
vt 0 1
vt 0 0
vt 1 0
vt 1 1
vt 0 1
vt 0 0
vt 0.2890625 0.484375
vt 0.2890625 0.671875
vt 0.0390625 0.671875
vt 0.0390625 0.484375
vt 0.2890625 0.484375
vt 0.2890625 0.671875
vt 0.0390625 0.671875
vt 0.0390625 0.484375
vt 0.0625 0.6875
vt 0.0625 0.8125
vt 0 0.8125
vt 0 0.6875
vt 1 0
vt 1 1
vt 0.5 1
vt 0.5 0
vt 1 0
vt 1 0.5
vt 0 0.5
vt 0 0
vt 0.125 0.875
vt 0.125 1
vt 0 1
vt 0 0.875
vt 0.875 0.5
vt 0.875 0.625
vt 0.75 0.625
vt 0.75 0.5
vt 1 0
vt 1 1
vt 0 1
vt 0 0
vt 0.5 0.625
vt 0.5 0.75
vt 0.375 0.75
vt 0.375 0.625
vt 1 0
vt 1 1
vt 0 1
vt 0 0
vt 1 0
vt 1 1
vt 0.5 1
vt 0.5 0
vt 0.5546875 0.375
vt 0.5546875 0.5
vt 0.4921875 0.5
vt 0.4921875 0.375
vt 1 0
vt 1 1
vt 0.5 1
vt 0.5 0
vt 0.5 0
vt 0.5 1
vt 0 1
vt 0 0
vt 0.875 0
vt 0.875 0.875
vt 0.125 0.875
vt 0.125 0
vt 0.875 0
vt 0.875 0.875
vt 0.125 0.875
vt 0.125 0
vt 0.875 0.125
vt 0.875 0.875
vt 0.125 0.875
vt 0.125 0.125
vt 0.75 0.25
vt 0.75 1
vt 0 1
vt 0 0.25
vt 0.875 0
vt 0.875 0.875
vt 0.125 0.875
vt 0.125 0
vt 0.875 0
vt 0.875 0.875
vt 0.125 0.875
vt 0.125 0
vt 0.75 0.25
vt 0.75 1
vt 0 1
vt 0 0.25
vt 1 0.125
vt 1 0.875
vt 0 0.875
vt 0 0.125
vt 1 0.125
vt 1 0.875
vt 0 0.875
vt 0 0.125
vt 1 0.125
vt 1 0.875
vt 0 0.875
vt 0 0.125
vt 1 0.125
vt 1 0.875
vt 0 0.875
vt 0 0.125
vt 0.2734375 0.765625
vt 0.2734375 0.78125
vt 0.2421875 0.78125
vt 0.2421875 0.765625
vt 0.2734375 0.765625
vt 0.2734375 0.78125
vt 0.2421875 0.78125
vt 0.2421875 0.765625
vt 1 0.125
vt 1 0.875
vt 0 0.875
vt 0 0.125
vt 1 0.125
vt 1 0.875
vt 0 0.875
vt 0 0.125
vt 0.3046875 0.765625
vt 0.3046875 0.78125
vt 0.2421875 0.78125
vt 0.2421875 0.765625
vt 0.3046875 0.765625
vt 0.3046875 0.78125
vt 0.2421875 0.78125
vt 0.2421875 0.765625
vt 0.75 0.25
vt 0.75 1
vt 0 1
vt 0 0.25
vt 0.484375 0.890625
vt 0.484375 0.984375
vt 0.390625 0.984375
vt 0.390625 0.890625
vt 1 0.125
vt 1 0.875
vt 0.5625 0.875
vt 0.5625 0.125
vt 1 0.125
vt 1 0.875
vt 0.5625 0.875
vt 0.5625 0.125
vt 1 0.125
vt 1 0.875
vt 0.5625 0.875
vt 0.5625 0.125
vt 1 0.125
vt 1 0.875
vt 0.5625 0.875
vt 0.5625 0.125
vt 0.375 0.6875
vt 0.375 0.8125
vt 0 0.8125
vt 0 0.6875
vt 1 0
vt 1 1
vt 0 1
vt 0 0
vt 1 0
vt 1 1
vt 0 1
vt 0 0
vt 1 0
vt 1 1
vt 0 1
vt 0 0
vt 1 0
vt 1 1
vt 0 1
vt 0 0
vt 1 0
vt 1 1
vt 0 1
vt 0 0
vn 1 0 0
vn -1 0 0
vn 0 1 0
vn 0 -1 0
vn 0 0 1
vn 0 0 -1
vn 1 0 0
vn 0 0 1
vn -1 0 0
vn 0 0 -1
vn -1 0 0
vn 0 1 0
vn 0 -1 0
vn 0 0.7071067811865476 0.7071067811865476
vn 0 0.7071067811865476 -0.7071067811865476
vn -1 0 0
vn 0 0.7071067811865476 0.7071067811865476
vn 0 0.7071067811865476 -0.7071067811865476
vn 1 0 0
vn 1 0 0
vn 0 1 0
vn 0 1 0
vn 0 -1 0
vn 0 -1 0
vn -1 0 0
vn -1 0 0
vn -1 0 0
vn -1 0 0
vn 1 0 0
vn 1 0 0
vn 1 0 0
vn 0 0 -1
vn 0 0 -1
vn 0 0 -1
vn 0 0 -1
vn 0 -1 0
vn 0 -1 0
vn 0 -1 0
vn 0 -1 0
vn 0 1 0
vn 0 1 0
vn 0 1 0
vn 0 1 0
vn 0 0 1
vn 0 0 1
vn 0 0 1
vn 0 0 1
vn 1 0 0
vn 0 -0.7071067811865476 0.7071067811865476
vn 0 -0.7071067811865476 -0.7071067811865476
vn 1 0 0
vn 1 0 0
vn 0 -1 0
vn 0 -1 0
vn 0 1 0
vn 0 1 0
vn 1 0 0
vn -1 0 0
vn 0 1 0
vn 0 -0.7071067811865476 0.7071067811865476
vn 0 -0.7071067811865476 -0.7071067811865476
vn 0.7071067811865476 0.7071067811865476 0
vn 1 0 0
vn 0 0 1
vn 0 0 -1
vn 1 0 0
vn 0 1 0
vn -0.24253562503633297 -0.9701425001453319 0
vn 0 0 1
vn 0 0 -1
vn 1 0 0
vn -1 0 0
vn 0 1 0
vn -0.24253562503633297 -0.9701425001453319 0
vn 0 0 1
vn 0 0 -1
vn 1 0 0
vn -1 0 0
vn 0 1 0
vn 0 -1 0
vn 0 0 1
vn 0 0 -1
vn 1 0 0
vn -1 0 0
vn 0 1 0
vn 0 -1 0
vn 0 0 1
vn 0 0 -1
vn 1 0 0
vn -1 0 0
vn 0 1 0
vn 0 -1 0
vn 0 0 1
vn 0 0 -1
vn 1 0 0
vn -1 0 0
vn 0 1 0
vn 0 -1 0
vn 0 0 1
vn 0 0 -1
vn 1 0 0
vn -1 0 0
vn 0 1 0
vn 0 -1 0
vn 0 0 1
vn 0 0 -1
vn 1 0 0
vn -1 0 0
vn 0 1 0
vn 0 -1 0
vn 0 0 1
vn 0 0 -1
vn 1 0 0
vn -1 0 0
vn 0 1 0
vn 0 -1 0
vn 0 0 1
vn 0 0 -1
vn 1 0 0
vn -1 0 0
vn 0 1 0
vn 0 -1 0
vn 0 0 1
vn 0 0 -1
vn 1 0 0
vn -1 0 0
vn 0 1 0
vn 0 -1 0
vn 0 0 1
vn 0 0 -1
vn 1 0 0
vn 0 1 0
vn 0 -1 0
vn 0 0 1
vn 0 0 -1
vn 1 0 0
vn -1 0 0
vn 0 1 0
vn 0 -1 0
vn 0 0 1
vn 0 0 -1
vn 1 0 0
vn -1 0 0
vn 0 1 0
vn 0 -1 0
vn 0 0 1
vn 0 0 -1
vn 1 0 0
vn -1 0 0
vn 0 1 0
vn 0 -1 0
vn 0 0 1
vn 0 0 -1
usemtl m_3d2c6943-1f61-d819-3276-96fe89bf9b43
f 4/1/1 2/2/1 1/3/1 3/4/1
f 7/5/2 5/6/2 6/7/2 8/8/2
f 1/9/3 2/10/3 6/11/3 5/12/3
usemtl none
f 11/13/4 9/14/4 10/15/4 12/16/4
usemtl m_3d2c6943-1f61-d819-3276-96fe89bf9b43
f 3/17/5 1/18/5 5/19/5 7/20/5
f 8/21/6 6/22/6 2/23/6 4/24/6
f 9/25/7 11/26/7 4/27/7 3/28/7
f 10/29/8 9/30/8 3/31/8 7/32/8
f 12/33/9 10/34/9 7/35/9 8/36/9
f 11/37/10 12/38/10 8/39/10 4/40/10
usemtl none
f 19/41/11 17/42/11 18/43/11 20/44/11
usemtl m_ce64a2a9-1862-9bc8-ad10-4ffd77317fbd
f 17/45/12 13/46/12 14/47/12 18/48/12
usemtl none
f 16/49/13 15/50/13 19/51/13 20/52/13
usemtl m_ce64a2a9-1862-9bc8-ad10-4ffd77317fbd
f 15/53/14 13/54/14 17/55/14 19/56/14
f 18/57/15 14/58/15 16/59/15 20/60/15
usemtl none
f 15/61/16 13/62/16 14/63/16 16/64/16
usemtl m_ce64a2a9-1862-9bc8-ad10-4ffd77317fbd
f 23/65/17 21/66/17 13/67/17 15/68/17
f 14/69/18 22/70/18 24/71/18 16/72/18
f 22/73/19 25/74/19 26/75/19 24/76/19
f 26/77/20 25/78/20 21/79/20 23/80/20
f 13/81/21 21/82/21 25/83/21 14/84/21
f 25/85/22 22/86/22 14/87/22
usemtl none
f 16/88/23 24/89/23 26/90/23 15/91/23
f 26/92/24 23/93/24 15/94/24
usemtl m_3d2c6943-1f61-d819-3276-96fe89bf9b43
f 12/95/25 30/96/25 31/97/25 32/98/25
f 33/99/26 31/100/26 30/101/26 29/102/26
f 34/103/27 27/104/27 32/105/27 31/106/27
f 31/107/28 33/108/28 28/109/28 34/110/28
f 44/111/29 48/112/29 50/113/29 49/114/29
f 11/115/30 47/116/30 50/117/30 46/118/30
f 46/119/31 50/120/31 48/121/31 45/122/31
f 45/123/32 38/124/32 39/125/32 46/126/32
f 38/127/33 29/128/33 30/129/33 39/130/33
f 30/131/34 12/132/34 36/133/34 39/134/34
f 11/135/35 46/136/35 39/137/35 36/138/35
f 41/139/36 33/140/36 29/141/36 38/142/36
f 48/143/37 41/144/37 38/145/37 45/146/37
f 48/147/38 44/148/38 37/149/38 41/150/38
f 37/151/39 28/152/39 33/153/39 41/154/39
f 27/155/40 35/156/40 40/157/40 32/158/40
f 43/159/41 47/160/41 40/161/41 35/162/41
f 11/163/42 36/164/42 40/165/42 47/166/42
f 32/167/43 40/168/43 36/169/43 12/170/43
f 42/171/44 34/172/44 28/173/44 37/174/44
f 49/175/45 42/176/45 37/177/45 44/178/45
f 43/179/46 35/180/46 42/181/46 49/182/46
f 27/183/47 34/184/47 42/185/47 35/186/47
f 43/187/48 49/188/48 50/189/48 47/190/48
usemtl m_ce64a2a9-1862-9bc8-ad10-4ffd77317fbd
f 55/191/49 51/192/49 53/193/49 57/194/49
f 54/195/50 52/196/50 56/197/50 58/198/50
f 60/199/51 59/200/51 52/201/51 54/202/51
f 51/203/52 59/204/52 60/205/52 53/206/52
f 59/207/53 51/208/53 55/209/53 56/210/53
f 52/211/54 59/212/54 56/213/54
usemtl none
f 60/214/55 54/215/55 58/216/55 57/217/55
f 53/218/56 60/219/56 57/220/56
f 57/221/57 55/222/57 56/223/57 58/224/57
f 62/225/58 61/226/58 43/227/58 63/228/58
f 43/229/59 57/230/59 58/231/59 63/232/59
usemtl m_ce64a2a9-1862-9bc8-ad10-4ffd77317fbd
f 61/233/60 55/234/60 57/235/60 43/236/60
f 58/237/61 56/238/61 62/239/61 63/240/61
f 52/241/62 51/242/62 64/243/62 65/244/62
usemtl none
f 65/245/63 64/246/63 68/247/63 69/248/63
usemtl m_ce64a2a9-1862-9bc8-ad10-4ffd77317fbd
f 64/249/64 51/250/64 66/251/64 68/252/64
f 67/253/65 52/254/65 65/255/65 69/256/65
usemtl none
f 52/257/66 51/258/66 66/259/66 67/260/66
f 55/261/67 51/262/67 52/263/67 56/264/67
usemtl m_ce64a2a9-1862-9bc8-ad10-4ffd77317fbd
f 67/265/68 66/266/68 70/267/68 71/268/68
f 66/269/69 51/270/69 55/271/69 70/272/69
f 56/273/70 52/274/70 67/275/70 71/276/70
usemtl none
f 56/277/71 55/278/71 70/279/71 71/280/71
f 72/281/72 61/282/72 62/283/72 73/284/72
f 61/285/73 55/286/73 56/287/73 62/288/73
usemtl m_ce64a2a9-1862-9bc8-ad10-4ffd77317fbd
f 71/289/74 70/290/74 72/291/74 73/292/74
f 70/293/75 55/294/75 61/295/75 72/296/75
f 62/297/76 56/298/76 71/299/76 73/300/76
usemtl m_40671b94-637e-4749-282b-c481b39a0702
f 77/301/77 75/302/77 74/303/77 76/304/77
f 80/305/78 78/306/78 79/307/78 81/308/78
f 74/309/79 75/310/79 79/311/79 78/312/79
f 77/313/80 76/314/80 80/315/80 81/316/80
f 76/317/81 74/318/81 78/319/81 80/320/81
f 81/321/82 79/322/82 75/323/82 77/324/82
usemtl m_3d2c6943-1f61-d819-3276-96fe89bf9b43
f 81/325/83 45/326/83 82/327/83 80/328/83
f 85/329/84 83/330/84 84/331/84 86/332/84
f 82/333/85 45/334/85 84/335/85 83/336/85
usemtl m_40671b94-637e-4749-282b-c481b39a0702
f 81/337/86 80/338/86 85/339/86 86/340/86
usemtl m_bb7b38bf-11a5-0f0a-8fe4-b98145a720f1
f 80/341/87 82/342/87 83/343/87 85/344/87
f 86/345/88 84/346/88 45/347/88 81/348/88
usemtl m_40671b94-637e-4749-282b-c481b39a0702
f 90/349/89 88/350/89 87/351/89 89/352/89
f 76/353/90 74/354/90 66/355/90 91/356/90
f 87/357/91 88/358/91 66/359/91 74/360/91
f 90/361/92 89/362/92 76/363/92 91/364/92
f 89/365/93 87/366/93 74/367/93 76/368/93
f 91/369/94 66/370/94 88/371/94 90/372/94
f 95/373/95 93/374/95 92/375/95 94/376/95
usemtl none
f 96/377/96 67/378/96 75/379/96 77/380/96
usemtl m_40671b94-637e-4749-282b-c481b39a0702
f 92/381/97 93/382/97 75/383/97 67/384/97
f 95/385/98 94/386/98 96/387/98 77/388/98
usemtl none
f 94/389/99 92/390/99 67/391/99 96/392/99
usemtl m_40671b94-637e-4749-282b-c481b39a0702
f 77/393/100 75/394/100 93/395/100 95/396/100
usemtl m_3d2c6943-1f61-d819-3276-96fe89bf9b43
f 94/397/101 98/398/101 97/399/101 90/400/101
usemtl none
f 99/401/102 64/402/102 65/403/102 100/404/102
usemtl m_bb7b38bf-11a5-0f0a-8fe4-b98145a720f1
f 97/405/103 98/406/103 65/407/103 64/408/103
usemtl m_40671b94-637e-4749-282b-c481b39a0702
f 94/409/104 90/410/104 99/411/104 100/412/104
usemtl m_bb7b38bf-11a5-0f0a-8fe4-b98145a720f1
f 90/413/105 97/414/105 64/415/105 99/416/105
f 100/417/106 65/418/106 98/419/106 94/420/106
usemtl m_17e4e51c-52f7-b2e3-fa7a-f38f3d115714
f 54/421/107 24/422/107 23/423/107 53/424/107
f 43/425/108 19/426/108 20/427/108 63/428/108
usemtl none
f 23/429/109 24/430/109 20/431/109 19/432/109
f 54/433/110 53/434/110 43/435/110 63/436/110
usemtl m_17e4e51c-52f7-b2e3-fa7a-f38f3d115714
f 53/437/111 23/438/111 19/439/111 43/440/111
f 63/441/112 20/442/112 24/443/112 54/444/112
usemtl m_3d2c6943-1f61-d819-3276-96fe89bf9b43
f 44/445/113 43/446/113 9/447/113 82/448/113
usemtl m_bb7b38bf-11a5-0f0a-8fe4-b98145a720f1
f 83/449/114 101/450/114 102/451/114 103/452/114
f 9/453/115 43/454/115 102/455/115 101/456/115
usemtl m_17e4e51c-52f7-b2e3-fa7a-f38f3d115714
f 44/457/116 82/458/116 83/459/116 103/460/116
usemtl m_3d2c6943-1f61-d819-3276-96fe89bf9b43
f 82/461/117 9/462/117 101/463/117 83/464/117
usemtl m_bb7b38bf-11a5-0f0a-8fe4-b98145a720f1
f 103/465/118 102/466/118 43/467/118 44/468/118
usemtl m_3d2c6943-1f61-d819-3276-96fe89bf9b43
f 100/469/119 69/470/119 68/471/119 99/472/119
usemtl none
f 91/473/120 66/474/120 67/475/120 96/476/120
usemtl m_bb7b38bf-11a5-0f0a-8fe4-b98145a720f1
f 68/477/121 69/478/121 67/479/121 66/480/121
usemtl m_40671b94-637e-4749-282b-c481b39a0702
f 100/481/122 99/482/122 91/483/122 96/484/122
usemtl m_bb7b38bf-11a5-0f0a-8fe4-b98145a720f1
f 99/485/123 68/486/123 66/487/123 91/488/123
f 96/489/124 67/490/124 69/491/124 100/492/124
usemtl m_6cf0278d-b64d-6ea0-58c3-9409d2e23cbc
f 107/493/125 105/494/125 104/495/125 106/496/125
f 110/497/126 108/498/126 109/499/126 111/500/126
f 104/501/127 105/502/127 109/503/127 108/504/127
usemtl none
f 107/505/128 106/506/128 110/507/128 111/508/128
usemtl m_6cf0278d-b64d-6ea0-58c3-9409d2e23cbc
f 106/509/129 104/510/129 108/511/129 110/512/129
f 111/513/130 109/514/130 105/515/130 107/516/130
usemtl none
f 113/517/131 109/518/131 108/519/131 112/520/131
usemtl m_6cf0278d-b64d-6ea0-58c3-9409d2e23cbc
f 108/521/132 109/522/132 115/523/132 114/524/132
f 113/525/133 112/526/133 116/527/133 117/528/133
f 112/529/134 108/530/134 114/531/134 116/532/134
f 117/533/135 115/534/135 109/535/135 113/536/135
usemtl m_3d2c6943-1f61-d819-3276-96fe89bf9b43
f 121/537/136 119/538/136 118/539/136 120/540/136
f 124/541/137 122/542/137 123/543/137 125/544/137
usemtl m_6cf0278d-b64d-6ea0-58c3-9409d2e23cbc
f 118/545/138 119/546/138 123/547/138 122/548/138
f 121/549/139 120/550/139 124/551/139 125/552/139
usemtl m_3d2c6943-1f61-d819-3276-96fe89bf9b43
f 120/553/140 118/554/140 122/555/140 124/556/140
f 125/557/141 123/558/141 119/559/141 121/560/141
usemtl none
f 117/561/142 115/562/142 114/563/142 116/564/142
usemtl m_3d2c6943-1f61-d819-3276-96fe89bf9b43
f 128/565/143 126/566/143 127/567/143 129/568/143
usemtl m_6cf0278d-b64d-6ea0-58c3-9409d2e23cbc
f 114/569/144 115/570/144 127/571/144 126/572/144
f 117/573/145 116/574/145 128/575/145 129/576/145
f 116/577/146 114/578/146 126/579/146 128/580/146
f 129/581/147 127/582/147 115/583/147 117/584/147
usemtl m_3d2c6943-1f61-d819-3276-96fe89bf9b43
f 133/585/148 131/586/148 130/587/148 132/588/148
usemtl m_07413d59-429a-f3b1-456b-e20b77017268
f 136/589/149 134/590/149 135/591/149 137/592/149
usemtl m_bb7b38bf-11a5-0f0a-8fe4-b98145a720f1
f 130/593/150 131/594/150 135/595/150 134/596/150
f 133/597/151 132/598/151 136/599/151 137/600/151
f 132/601/152 130/602/152 134/603/152 136/604/152
f 137/605/153 135/606/153 131/607/153 133/608/153