# Made in Blockbench 4.12.4
mtllib grinder.mtl

o cube
v 1 -0.5 -2
v -2 -0.5 -2
v 1 -1 -2
v -2 -1 -2
v 1 -0.5 0
v -2 -0.5 0
v 1 -1 0
v -2 -1 0
v 1 -0.5 -3
v 0 -0.5 -3
v 1 -1 -3
v 0 -1 -3
v 0 -0.5 -2
v 0 -1 -2
v -1 -0.5 -3
v -2 -0.5 -3
v -1 -1 -3
v -2 -1 -3
v -1 -0.5 -2
v -1 -1 -2
v 0 0 -3
v -1 0 -3
v 0 0 -2.5
v -1 0 -2.5
v 0 -1 -2.5
v -1 -1 -2.5
v 0 -0.5 -2.5
v -1 -0.5 -2.5
v 1 0 0
v -2 0 0
v 1 0 1
v -2 0 1
v 1 -1 1
v -2 -1 1
v 0 2.5 0
v -1 2.5 0
v 0 1.5 0
v -1 1.5 0
v 0 2.5 1
v -1 2.5 1
v 0 1.5 1
v -1 1.5 1
v 1 1 0
v 0.5 1 0
v 0.5 0 0
v 1 1 1
v 0.5 1 1
v 0.5 0 1
v 1 3 0
v -2 3 0
v 1 2 0
v -2 2 0
v 1 3 0.5
v -2 3 0.5
v 1 2 0.5
v -2 2 0.5
v 1 1 0.5
v -2 1 0
v -2 1 0.5
v 0.5 1 0.5
v 0.5 0 0.5
v -2 0 0.5
v -2 0.5 0.5
v -0.75 0.5 0.5
v -0.75 1 0.5
v -0.75 0 0.5
v 0.5 0.5 0.5
v 0.5 1 0.25
v -2 1 0.25
v 0.5 0 0.25
v -2 0 0.25
v -2 0.5 0.25
v -0.75 1 0.25
v -0.75 0 0.25
v 0.5 0.5 0.25
v -2 0.5 0
v -0.75 1 0
v -0.75 0 0
v 0.5 0.5 0
v -0.75 0.5 0
v 0.5 2.5 -2
v -1.5 2.5 -2
v 0.5 1 -2
v -1.5 1 -2
v 0.5 2.5 0
v -1.5 2.5 0
v -1.5 1 0
v 0 3 -1
v -1 3 -1
v 0.5 2.5 -1
v -1.5 2.5 -1
v 0 3 0
v -1 3 0
v 0 0.5 -1
v -1 0.5 -1
v 0.5 1 -1
v -1.5 1 -1
v 0 0.5 0
v -1 0.5 0
v 0 3 -2
v -1 3 -2
v -0.501899564712736 3 -2
v -0.49967025018465083 2.5 -2
v 0 0.5 -2
v -1 0.5 -2
v -0.501899564712736 0.5 -2
v -0.49967025018465083 1 -2
v -0.125 3.875 -1.375
v -0.875 3.875 -1.375
v -0.125 3 -1.375
v -0.875 3 -1.375
v -0.125 3.875 -0.625
v -0.875 3.875 -0.625
v -0.125 3 -0.625
v -0.875 3 -0.625
v -0.125 3.125 -0.625
v -0.875 3.125 -0.625
v -0.125 3.875 0.5
v -0.875 3.875 0.5
v -0.125 3.125 0.5
v -0.875 3.125 0.5
v -0.125 3.875 1
v -0.875 3.875 1
v -0.125 3.125 1
v -0.875 3.125 1
v -0.375 3.125 0
v -0.625 3.125 0
v -0.375 3 0
v -0.625 3 0
v -0.375 3.125 0.5
v -0.625 3.125 0.5
v -0.375 3 0.5
v -0.625 3 0.5
v 0 -0.25 -1
v -1 -0.25 -1
v 0 0 0
v -1 0 0
vt 0.125 0.9375
vt 0.125 1
vt 0 1
vt 0 0.9375
vt 0.125 0.9375
vt 0.125 1
vt 0 1
vt 0 0.9375
vt 0.25 0.625
vt 0.25 1
vt 0 1
vt 0 0.625
vt 0.375 0.25
vt 0.375 0.625
vt 0.125 0.625
vt 0.125 0.25
vt 0.25 0.1875
vt 0.25 0.25
vt 0 0.25
vt 0 0.1875
vt 0 0.1875
vt 0 0.25
vt 0.25 0.25
vt 0.25 0.1875
vt 0.625 0.1875
vt 0.625 0.25
vt 0.5 0.25
vt 0.5 0.1875
vt 0.125 0.9375
vt 0.125 1
vt 0 1
vt 0 0.9375
vt 0.625 0.625
vt 0.625 0.75
vt 0.5 0.75
vt 0.5 0.625
vt 0.625 0.5
vt 0.625 0.625
vt 0.5 0.625
vt 0.5 0.5
vt 0.375 0.1875
vt 0.375 0.25
vt 0.25 0.25
vt 0.25 0.1875
vt 0.125 0.9375
vt 0.125 1
vt 0 1
vt 0 0.9375
vt 0.5 0.1875
vt 0.5 0.25
vt 0.625 0.25
vt 0.625 0.1875
vt 1 0.5
vt 1 1
vt 0 1
vt 0 0.5
vt 0.625 0.875
vt 0.625 1
vt 0.5 1
vt 0.5 0.875
vt 0.625 0.25
vt 0.625 0.375
vt 0.5 0.375
vt 0.5 0.25
vt 1 0.5
vt 1 1
vt 0 1
vt 0 0.5
vt 0.25 0.1875
vt 0.25 0.25
vt 0.375 0.25
vt 0.375 0.1875
vt 0.5 0.625
vt 0.5 0.75
vt 0.375 0.75
vt 0.375 0.625
vt 1 0
vt 1 1
vt 0 1
vt 0 0
vt 1 0
vt 1 1
vt 0.5 1
vt 0.5 0
vt 0.625 0.375
vt 0.625 0.5
vt 0.5625 0.5
vt 0.5625 0.375
vt 1 0
vt 1 1
vt 0.5 1
vt 0.5 0
vt 0.5 0
vt 0.5 1
vt 0 1
vt 0 0
vt 0.5 0.75
vt 0.375 0.75
vt 0.375 0.625
vt 0.5 0.625
vt 1 1
vt 0 1
vt 0 0
vt 1 0
vt 0.5546875 0.5
vt 0.4921875 0.5
vt 0.4921875 0.375
vt 0.5546875 0.375
vt 1 1
vt 0.5 1
vt 0.5 0
vt 1 0
vt 0.5 1
vt 0 1
vt 0 0
vt 0.5 0
vt 0.375 0.5625
vt 0.375 0.6875
vt 0 0.6875
vt 0 0.5625
vt 0.375 0.5
vt 0.375 0.625
vt 0 0.625
vt 0 0.5
vt 0.3671875 0.75
vt 0 0.75
vt 0 0.625
vt 0.3671875 0.625
vt 0.125 0.25
vt 0.125 0.625
vt 0 0.625
vt 0 0.25
vt 1 0
vt 1 1
vt 0 1
vt 0 0
vt 1 0
vt 1 1
vt 0 1
vt 0 0
vt 0.375 0.6875
vt 0.375 0.8125
vt 0 0.8125
vt 0 0.6875
vt 1 0
vt 1 1
vt 0 1
vt 0 0
vt 1 0
vt 1 1
vt 0 1
vt 0 0
vt 1 0
vt 1 1
vt 0 1
vt 0 0
vt 1 0
vt 1 1
vt 0 1
vt 0 0
vt 1 0
vt 1 1
vt 0 1
vt 0 0
vt 0.0625 0.6875
vt 0.0625 0.8125
vt 0 0.8125
vt 0 0.6875
vt 1 0
vt 1 1
vt 0.5 1
vt 0.5 0
vt 1 0
vt 1 0.5
vt 0 0.5
vt 0 0
vt 0.125 0.875
vt 0.125 1
vt 0 1
vt 0 0.875
vt 0.875 0.5
vt 0.875 0.625
vt 0.75 0.625
vt 0.75 0.5
vt 1 0
vt 1 1
vt 0 1
vt 0 0
vt 0.375 0.6875
vt 0.375 0.8125
vt 0 0.8125
vt 0 0.6875
vt 0.375 0.6875
vt 0.375 0.8125
vt 0 0.8125
vt 0 0.6875
vt 0.6171875 0.5546875
vt 0.6171875 0.6796875
vt 0.5546875 0.6796875
vt 0.5546875 0.5546875
vt 0.5 0
vt 0.5 1
vt 0 1
vt 0 0
vt 0.6171875 0.5546875
vt 0.6171875 0.6796875
vt 0.5546875 0.6796875
vt 0.5546875 0.5546875
vt 0.625 0.5546875
vt 0.625 0.6796875
vt 0.5625 0.6796875
vt 0.5625 0.5546875
vt 0 0.625
vt 0.375 0.625
vt 0.375 0.75
vt 0 0.75
vt 0.5546875 0.5546875
vt 0.6171875 0.5546875
vt 0.6171875 0.6796875
vt 0.5546875 0.6796875
vt 0 0.625
vt 0.375 0.625
vt 0.375 0.75
vt 0 0.75
vt 0.5625 0.5546875
vt 0.625 0.5546875
vt 0.625 0.6796875
vt 0.5625 0.6796875
vt 0 0.8125
vt 0 0.75
vt 0.15615147228256718 0.7501475984064989
vt 0.15625 0.8124377073396181
vt 0.1558738666486349 0.625
vt 0.15625 0.6875
vt 0 0.6873520522037575
vt 0 0.625
vt 0.375 0.7501878189814473
vt 0.375 0.8125
vt 0.218848589885986 0.8124375598826289
vt 0.21875 0.75
vt 0.21875 0.6873121810185527
vt 0.21875 0.625
vt 0.374901410114014 0.6250624401173711
vt 0.375 0.6875
vt 0.06256420254031725 0.6875000013359497
vt 0.21875 0.687500001336145
vt 0.21868579745968272 0.75
vt 0.0625 0.75
vt 0.37493579745968275 0.8125
vt 0.21875 0.8124999999998046
vt 0.21881420254031728 0.7500000013359497
vt 0.375 0.7500000013359497
vt 0.37493579745968275 0.75
vt 0.21875 0.7499999999998046
vt 0.21881420254031728 0.6875000013359497
vt 0.375 0.6875000013359497
vt 0 0.625
vt 0.03125 0.625
vt 0.03125 0.6875
vt 0 0.6875
vt 0.34375 0.625
vt 0.375 0.625
vt 0.375 0.6875
vt 0.34375 0.6875
vt 0.375 0.75
vt 0.375 0.8125
vt 0.34375 0.8125
vt 0.34375 0.75
vt 0 0.8125
vt 0 0.75
vt 0.03125 0.75
vt 0.03125 0.8125
vt 0.15625 0.78125
vt 0.15625 0.8125
vt 0 0.8125
vt 0 0.78125
vt 0.15625 0.625
vt 0.15625 0.65625
vt 0 0.65625
vt 0 0.625
vt 0.21875 0.625
vt 0.375 0.625
vt 0.375 0.65625
vt 0.21875 0.65625
vt 0.375 0.78125
vt 0.375 0.8125
vt 0.21875 0.8125
vt 0.21875 0.78125
vt 0 0.8125
vt 0 0.78125
vt 0.15625 0.78125
vt 0.15625 0.8125
vt 0 0.625
vt 0.15625 0.625
vt 0.15625 0.65625
vt 0 0.65625
vt 0.375 0.625
vt 0.375 0.65625
vt 0.21875 0.65625
vt 0.21875 0.625
vt 0.21875 0.8125
vt 0.21875 0.78125
vt 0.375 0.78125
vt 0.375 0.8125
vt 0.03125 0.6875
vt 0 0.6875
vt 0 0.625
vt 0.03125 0.625
vt 0.375 0.6875
vt 0.34375 0.6875
vt 0.34375 0.625
vt 0.375 0.625
vt 0.375 0.8125
vt 0.34375 0.8125
vt 0.34375 0.75
vt 0.375 0.75
vt 0 0.8125
vt 0 0.75
vt 0.03125 0.75
vt 0.03125 0.8125
vt 0.0625 0.8125
vt 0.0625 0.75
vt 0.21875 0.75
vt 0.21875 0.8125
vt 0.2890625 0.484375
vt 0.2890625 0.671875
vt 0.03125 0.671875
vt 0.03125 0.484375
vt 0.2890625 0.484375
vt 0.2890625 0.671875
vt 0.03125 0.671875
vt 0.03125 0.484375
vt 1 0
vt 1 1
vt 0 1
vt 0 0
vt 1 0
vt 1 1
vt 0 1
vt 0 0
vt 0.2890625 0.484375
vt 0.2890625 0.671875
vt 0.03125 0.671875
vt 0.03125 0.484375
vt 0.2890625 0.484375
vt 0.2890625 0.671875
vt 0.03125 0.671875
vt 0.03125 0.484375
vt 1 0.5
vt 1 1
vt 0 1
vt 0 0.5
vt 0 0
vt 1 0
vt 1 1
vt 0 1
vt 1 0
vt 1 1
vt 0 1
vt 0 0
vt 1 0.5
vt 1 1
vt 0 1
vt 0 0.5
vt 0 1
vt 1 1
vt 1 0.5
vt 0 0.5
vt 0 1
vt 1 1
vt 1 0.5
vt 0 0.5
vt 0 1
vt 1 1
vt 1 0
vt 0 0
vt 0 1
vt 1 1
vt 1 0.5
vt 0 0.5
vt 1 0.5
vt 1 1
vt 0 1
vt 0 0.5
vt 1 0.5
vt 1 1
vt 0 1
vt 0 0.5
vt 1 0.5
vt 1 1
vt 0 1
vt 0 0.5
vt 0 1
vt 1 1
vt 1 0.5
vt 0 0.5
vt 0.5 0.5
vt 1 0.5
vt 1 0
vt 0 0
vt 0 0
vt 0 0.5
vt 0.4999999999999999 0.5
vt 0.9999999999999999 0
vt 0 0
vt 1 0
vt 1 0.501899564712736
vt 0 1
vt 1 0.501899564712736
vt 1 1
vt 0 1
vt 0 0
vt 1 0
vt 1 0.5001648749076746
vt 0 1
vt 1 0.5001648749076746
vt 1 1
vt 0 1
vt 0 1
vt 1 1
vt 1 0.5
vt 0 0.5
vt 0 1
vt 1 1
vt 1 0.5
vt 0 0.5
vt 1 0.5
vt 1 1
vt 0 1
vt 0 0.5
vt 1 0.5000000000000001
vt 1 0
vt 0.4999999999999998 1.1102230246251565e-16
vt 0 0.5000000000000001
vt 0.4999999999999999 0.5
vt 0 0.5
vt 0 0
vt 0.9999999999999999 0
vt 1 0.501899564712736
vt 1 0
vt 0 0
vt 0 1
vt 1 1
vt 1 0.501899564712736
vt 0 1
vt 1 0.5001648749076746
vt 1 0
vt 0 0
vt 0 1
vt 1 1
vt 1 0.5001648749076746
vt 0 1
vt 0.875 0
vt 0.875 0.875
vt 0.125 0.875
vt 0.125 0
vt 0.875 0
vt 0.875 0.875
vt 0.125 0.875
vt 0.125 0
vt 0.875 0.125
vt 0.875 0.875
vt 0.125 0.875
vt 0.125 0.125
vt 0.75 0.25
vt 0.75 1
vt 0 1
vt 0 0.25
vt 0.875 0
vt 0.875 0.875
vt 0.125 0.875
vt 0.125 0
vt 0.875 0
vt 0.875 0.875
vt 0.125 0.875
vt 0.125 0
vt 0.75 0.25
vt 0.75 1
vt 0 1
vt 0 0.25
vt 1 0.125
vt 1 0.875
vt 0 0.875
vt 0 0.125
vt 1 0.125
vt 1 0.875
vt 0 0.875
vt 0 0.125
vt 1 0.125
vt 1 0.875
vt 0 0.875
vt 0 0.125
vt 1 0.125
vt 1 0.875
vt 0 0.875
vt 0 0.125
vt 0.75 0.25
vt 0.75 1
vt 0 1
vt 0 0.25
vt 0.484375 0.890625
vt 0.484375 0.984375
vt 0.390625 0.984375
vt 0.390625 0.890625
vt 1 0.125
vt 1 0.875
vt 0.5625 0.875
vt 0.5625 0.125
vt 1 0.125
vt 1 0.875
vt 0.5625 0.875
vt 0.5625 0.125
vt 1 0.125
vt 1 0.875
vt 0.5625 0.875
vt 0.5625 0.125
vt 1 0.125
vt 1 0.875
vt 0.5625 0.875
vt 0.5625 0.125
vt 0.2734375 0.765625
vt 0.2734375 0.78125
vt 0.2421875 0.78125
vt 0.2421875 0.765625
vt 0.2734375 0.765625
vt 0.2734375 0.78125
vt 0.2421875 0.78125
vt 0.2421875 0.765625
vt 1 0.125
vt 1 0.875
vt 0 0.875
vt 0 0.125
vt 1 0.125
vt 1 0.875
vt 0 0.875
vt 0 0.125
vt 0.3046875 0.765625
vt 0.3046875 0.78125
vt 0.2421875 0.78125
vt 0.2421875 0.765625
vt 0.3046875 0.765625
vt 0.3046875 0.78125
vt 0.2421875 0.78125
vt 0.2421875 0.765625
vt 1 1
vt 0 1
vt 0 0.5
vt 1 0.5
vt 1 0.5
vt 1 1
vt 0 1
vt 0 0.5
vt 1 0
vt 1 1
vt 0 1
vt 0 0
vt 1 0.5
vt 1 1
vt 0 1
vt 0 0.5
vt 1 1
vt 0 1
vt 0 0.5
vt 1 0.5
vt 1 1
vt 0 1
vt 0 0.5
vt 1 0.5
vt 0 0
vt 1 0
vt 1 1
vt 0 1
vt 1 0
vt 1 1
vt 0 1
vt 0 0
vt 1 0
vt 1 1
vt 0 1
vt 0 0.25
vt 0 1
vt 1 1
vt 1 0
vt 0 0.25
vt 1 1
vt 0 1
vt 0 0.5
vt 1 0.5
vt 1 0.5
vt 1 1
vt 0 1
vt 0 0.5
vt 0 0
vt 1 0
vt 1 1
vt 0 1
vt 1 0
vt 1 1
vt 0 1
vt 0 0
vt 1 0.25
vt 1 1
vt 0 1
vt 0 0.5
vt 0 1
vt 1 1
vt 1 0.25
vt 0 0.5
vn 0 0 -1
vn 0 0 1
vn 0 1 0
vn 0 -1 0
vn 1 0 0
vn -1 0 0
vn 0 0 -1
vn 0 0 1
vn 0 1 0
vn 0 -1 0
vn 1 0 0
vn -1 0 0
vn 0 0 -1
vn 0 0 1
vn 0 1 0
vn 0 -1 0
vn 1 0 0
vn -1 0 0
vn 0 0 -1
vn 0 0 1
vn 0 1 0
vn 0 -1 0
vn 1 0 0
vn -1 0 0
vn 0 0 -1
vn 0 0 1
vn 0 -1 0
vn 1 0 0
vn -1 0 0
vn 0 0 -1
vn 0 0 1
vn 0 1 0
vn 0 -1 0
vn 1 0 0
vn -1 0 0
vn 0 0 -1
vn 0 0 1
vn 0 1 0
vn 0 -1 0
vn 1 0 0
vn -1 0 0
vn 0 0 -1
vn 0 0 1
vn 0 1 0
vn 0 -1 0
vn 1 0 0
vn -1 0 0
vn 0 0 -1
vn 0 0 1
vn 0 1 0
vn 0 -1 0
vn 1 0 0
vn -1 0 0
vn 0 0 -1
vn 1 0 0
vn 0 0 1
vn -1 0 0
vn 0 0 1
vn 0 0 1
vn 0 0 1
vn 0 0 1
vn 0 0 -1
vn 0 0 -1
vn 0 0 -1
vn -1 0 0
vn -1 0 0
vn -1 0 0
vn -1 0 0
vn 0 -1 0
vn 0 -1 0
vn 0 -1 0
vn 0 -1 0
vn 0 1 0
vn 0 1 0
vn 0 1 0
vn 0 1 0
vn 1 0 0
vn 1 0 0
vn 1 0 0
vn 1 0 0
vn 0 0 -1
vn 0 0 -1
vn 0 0 1
vn 0 1 0
vn 0 -1 0
vn 1 0 0
vn -1 0 0
vn 0 0 1
vn 0 1 0
vn 0 -1 0
vn 0.7071067811865476 0.7071067811865476 0
vn -0.7071067811865476 0.7071067811865476 0
vn 0 0 1
vn 0 1 0
vn 0.7071067811865476 -0.7071067811865476 0
vn -0.7071067811865476 -0.7071067811865476 0
vn 0 0 1
vn 0.7071067811865476 0.7071067811865476 0
vn -0.7071067811865476 0.7071067811865476 0
vn 0 0 -1
vn 0 0 -1
vn 0 1 0
vn 0 1 0
vn 0 -1 0
vn 0 -1 0
vn 0 0 1
vn 0.7071067811865476 -0.7071067811865476 0
vn -0.7071067811865476 -0.7071067811865476 0
vn 0 0 -1
vn 0 0 -1
vn 0 -1 0
vn 0 -1 0
vn 0 1 0
vn 0 1 0
vn 0 0 -1
vn 0 0 1
vn 0 1 0
vn 0 -1 0
vn 1 0 0
vn -1 0 0
vn 0 0 -1
vn 0 1 0
vn 0 -1 0
vn 1 0 0
vn -1 0 0
vn 0 0 -1
vn 0 0 1
vn 0 1 0
vn 0 -1 0
vn 1 0 0
vn -1 0 0
vn 0 0 -1
vn 0 0 1
vn 0 1 0
vn 0 -1 0
vn 1 0 0
vn -1 0 0
vn 0 0.7071067811865476 -0.7071067811865476
vn 0 -1 0
vn 0 0 -1
vn 1 0 0
vn -1 0 0
vn 0 0 -1
vn 0 1 0
vn 0 -0.9701425001453319 0.24253562503633297
vn 1 0 0
vn -1 0 0
vn 0 0 -1
vn 0 0 1
vn 0 1 0
vn 0 -0.9701425001453319 0.24253562503633297
vn 1 0 0
vn -1 0 0
usemtl m_40671b94-637e-4749-282b-c481b39a0702
f 4/1/1 2/2/1 1/3/1 3/4/1
f 7/5/2 5/6/2 6/7/2 8/8/2
f 1/9/3 2/10/3 6/11/3 5/12/3
f 4/13/4 3/14/4 7/15/4 8/16/4
f 3/17/5 1/18/5 5/19/5 7/20/5
f 8/21/6 6/22/6 2/23/6 4/24/6
f 12/25/7 10/26/7 9/27/7 11/28/7
f 3/29/8 1/30/8 13/31/8 14/32/8
f 9/33/9 10/34/9 13/35/9 1/36/9
f 12/37/10 11/38/10 3/39/10 14/40/10
f 11/41/11 9/42/11 1/43/11 3/44/11
f 14/45/12 13/46/12 10/47/12 12/48/12
f 18/49/13 16/50/13 15/51/13 17/52/13
usemtl none
f 20/53/14 19/54/14 2/55/14 4/56/14
usemtl m_40671b94-637e-4749-282b-c481b39a0702
f 15/57/15 16/58/15 2/59/15 19/60/15
f 18/61/16 17/62/16 20/63/16 4/64/16
usemtl none
f 17/65/17 15/66/17 19/67/17 20/68/17
usemtl m_40671b94-637e-4749-282b-c481b39a0702
f 4/69/18 2/70/18 16/71/18 18/72/18
usemtl m_3d2c6943-1f61-d819-3276-96fe89bf9b43
f 17/73/19 22/74/19 21/75/19 12/76/19
usemtl none
f 25/77/20 23/78/20 24/79/20 26/80/20
usemtl m_bb7b38bf-11a5-0f0a-8fe4-b98145a720f1
f 21/81/21 22/82/21 24/83/21 23/84/21
usemtl m_40671b94-637e-4749-282b-c481b39a0702
f 17/85/22 12/86/22 25/87/22 26/88/22
usemtl m_bb7b38bf-11a5-0f0a-8fe4-b98145a720f1
f 12/89/23 21/90/23 23/91/23 25/92/23
f 26/93/24 24/94/24 22/95/24 17/96/24
usemtl m_3d2c6943-1f61-d819-3276-96fe89bf9b43
f 28/97/25 27/98/25 25/99/25 26/100/25
usemtl none
f 13/101/26 19/102/26 20/103/26 14/104/26
usemtl m_40671b94-637e-4749-282b-c481b39a0702
f 25/105/27 14/106/27 20/107/27 26/108/27
usemtl m_bb7b38bf-11a5-0f0a-8fe4-b98145a720f1
f 27/109/28 13/110/28 14/111/28 25/112/28
f 19/113/29 28/114/29 26/115/29 20/116/29
usemtl m_3d2c6943-1f61-d819-3276-96fe89bf9b43
f 8/117/30 30/118/30 29/119/30 7/120/30
f 33/121/31 31/122/31 32/123/31 34/124/31
f 29/125/32 30/126/32 32/127/32 31/128/32
usemtl m_40671b94-637e-4749-282b-c481b39a0702
f 8/129/33 7/130/33 33/131/33 34/132/33
usemtl m_bb7b38bf-11a5-0f0a-8fe4-b98145a720f1
f 7/133/34 29/134/34 31/135/34 33/136/34
f 34/137/35 32/138/35 30/139/35 8/140/35
usemtl m_3d2c6943-1f61-d819-3276-96fe89bf9b43
f 38/141/36 36/142/36 35/143/36 37/144/36
usemtl m_07413d59-429a-f3b1-456b-e20b77017268
f 41/145/37 39/146/37 40/147/37 42/148/37
usemtl m_bb7b38bf-11a5-0f0a-8fe4-b98145a720f1
f 35/149/38 36/150/38 40/151/38 39/152/38
f 38/153/39 37/154/39 41/155/39 42/156/39
f 37/157/40 35/158/40 39/159/40 41/160/40
f 42/161/41 40/162/41 36/163/41 38/164/41
usemtl m_3d2c6943-1f61-d819-3276-96fe89bf9b43
f 45/165/42 44/166/42 43/167/42 29/168/42
usemtl m_bb7b38bf-11a5-0f0a-8fe4-b98145a720f1
f 31/169/43 46/170/43 47/171/43 48/172/43
f 43/173/44 44/174/44 47/175/44 46/176/44
usemtl m_17e4e51c-52f7-b2e3-fa7a-f38f3d115714
f 45/177/45 29/178/45 31/179/45 48/180/45
usemtl m_3d2c6943-1f61-d819-3276-96fe89bf9b43
f 29/181/46 43/182/46 46/183/46 31/184/46
usemtl m_bb7b38bf-11a5-0f0a-8fe4-b98145a720f1
f 48/185/47 47/186/47 44/187/47 45/188/47
usemtl m_3d2c6943-1f61-d819-3276-96fe89bf9b43
f 52/189/48 50/190/48 49/191/48 51/192/48
f 55/193/49 53/194/49 54/195/49 56/196/49
f 49/197/50 50/198/50 54/199/50 53/200/50
usemtl none
f 58/201/51 43/202/51 57/203/51 59/204/51
usemtl m_3d2c6943-1f61-d819-3276-96fe89bf9b43
f 51/205/52 49/206/52 53/207/52 55/208/52
f 56/209/53 54/210/53 50/211/53 52/212/53
f 43/213/54 58/214/54 52/215/54 51/216/54
f 57/217/55 43/218/55 51/219/55 55/220/55
f 59/221/56 57/222/56 55/223/56 56/224/56
f 58/225/57 59/226/57 56/227/57 52/228/57
f 59/229/58 63/230/58 64/231/58 65/232/58
f 66/233/59 64/234/59 63/235/59 62/236/59
f 67/237/60 60/238/60 65/239/60 64/240/60
f 64/241/61 66/242/61 61/243/61 67/244/61
f 45/245/62 78/246/62 80/247/62 79/248/62
f 58/249/63 77/250/63 80/251/63 76/252/63
f 76/253/64 80/254/64 78/255/64 30/256/64
f 30/257/65 71/258/65 72/259/65 76/260/65
f 71/261/66 62/262/66 63/263/66 72/264/66
f 63/265/67 59/266/67 69/267/67 72/268/67
f 58/269/68 76/270/68 72/271/68 69/272/68
f 74/273/69 66/274/69 62/275/69 71/276/69
f 78/277/70 74/278/70 71/279/70 30/280/70
f 78/281/71 45/282/71 70/283/71 74/284/71
f 70/285/72 61/286/72 66/287/72 74/288/72
f 60/289/73 68/290/73 73/291/73 65/292/73
f 44/293/74 77/294/74 73/295/74 68/296/74
f 58/297/75 69/298/75 73/299/75 77/300/75
f 65/301/76 73/302/76 69/303/76 59/304/76
f 75/305/77 67/306/77 61/307/77 70/308/77
f 79/309/78 75/310/78 70/311/78 45/312/78
f 44/313/79 68/314/79 75/315/79 79/316/79
f 60/317/80 67/318/80 75/319/80 68/320/80
f 44/321/81 79/322/81 80/323/81 77/324/81
usemtl m_17e4e51c-52f7-b2e3-fa7a-f38f3d115714
f 84/325/82 82/326/82 81/327/82 83/328/82
f 44/329/83 85/330/83 86/331/83 87/332/83
usemtl none
f 81/333/84 82/334/84 86/335/84 85/336/84
f 84/337/85 83/338/85 44/339/85 87/340/85
usemtl m_17e4e51c-52f7-b2e3-fa7a-f38f3d115714
f 83/341/86 81/342/86 85/343/86 44/344/86
f 87/345/87 86/346/87 82/347/87 84/348/87
usemtl none
f 85/349/88 92/350/88 93/351/88 86/352/88
usemtl m_ce64a2a9-1862-9bc8-ad10-4ffd77317fbd
f 92/353/89 88/354/89 89/355/89 93/356/89
usemtl none
f 91/357/90 90/358/90 85/359/90 86/360/90
usemtl m_ce64a2a9-1862-9bc8-ad10-4ffd77317fbd
f 90/361/91 88/362/91 92/363/91 85/364/91
f 93/365/92 89/366/92 91/367/92 86/368/92
usemtl none
f 99/369/93 98/370/93 44/371/93 87/372/93
f 44/373/94 96/374/94 97/375/94 87/376/94
usemtl m_ce64a2a9-1862-9bc8-ad10-4ffd77317fbd
f 98/377/95 94/378/95 96/379/95 44/380/95
f 97/381/96 95/382/96 99/383/96 87/384/96
usemtl none
f 90/385/97 88/386/97 89/387/97 91/388/97
usemtl m_ce64a2a9-1862-9bc8-ad10-4ffd77317fbd
f 81/389/98 100/390/98 88/391/98 90/392/98
f 89/393/99 101/394/99 82/395/99 91/396/99
f 101/397/100 102/398/100 103/399/100 82/400/100
f 103/401/101 102/402/101 100/403/101 81/404/101
f 88/405/102 100/406/102 102/407/102 89/408/102
f 102/409/103 101/410/103 89/411/103
usemtl none
f 91/412/104 82/413/104 103/414/104 90/415/104
f 103/416/105 81/417/105 90/418/105
f 95/419/106 94/420/106 96/421/106 97/422/106
usemtl m_ce64a2a9-1862-9bc8-ad10-4ffd77317fbd
f 94/423/107 104/424/107 83/425/107 96/426/107
f 84/427/108 105/428/108 95/429/108 97/430/108
f 107/431/109 106/432/109 105/433/109 84/434/109
f 104/435/110 106/436/110 107/437/110 83/438/110
f 106/439/111 104/440/111 94/441/111 95/442/111
f 105/443/112 106/444/112 95/445/112
usemtl none
f 107/446/113 84/447/113 97/448/113 96/449/113
f 83/450/114 107/451/114 96/452/114
usemtl m_6cf0278d-b64d-6ea0-58c3-9409d2e23cbc
f 111/453/115 109/454/115 108/455/115 110/456/115
f 114/457/116 112/458/116 113/459/116 115/460/116
f 108/461/117 109/462/117 113/463/117 112/464/117
usemtl none
f 111/465/118 110/466/118 114/467/118 115/468/118
usemtl m_6cf0278d-b64d-6ea0-58c3-9409d2e23cbc
f 110/469/119 108/470/119 112/471/119 114/472/119
f 115/473/120 113/474/120 109/475/120 111/476/120
usemtl none
f 117/477/121 113/478/121 112/479/121 116/480/121
usemtl m_6cf0278d-b64d-6ea0-58c3-9409d2e23cbc
f 112/481/122 113/482/122 119/483/122 118/484/122
f 117/485/123 116/486/123 120/487/123 121/488/123
f 116/489/124 112/490/124 118/491/124 120/492/124
f 121/493/125 119/494/125 113/495/125 117/496/125
usemtl none
f 121/497/126 119/498/126 118/499/126 120/500/126
usemtl m_3d2c6943-1f61-d819-3276-96fe89bf9b43
f 124/501/127 122/502/127 123/503/127 125/504/127
usemtl m_6cf0278d-b64d-6ea0-58c3-9409d2e23cbc
f 118/505/128 119/506/128 123/507/128 122/508/128
f 121/509/129 120/510/129 124/511/129 125/512/129
f 120/513/130 118/514/130 122/515/130 124/516/130
f 125/517/131 123/518/131 119/519/131 121/520/131
usemtl m_3d2c6943-1f61-d819-3276-96fe89bf9b43
f 129/521/132 127/522/132 126/523/132 128/524/132
f 132/525/133 130/526/133 131/527/133 133/528/133
usemtl m_6cf0278d-b64d-6ea0-58c3-9409d2e23cbc
f 126/529/134 127/530/134 131/531/134 130/532/134
f 129/533/135 128/534/135 132/535/135 133/536/135
usemtl m_3d2c6943-1f61-d819-3276-96fe89bf9b43
f 128/537/136 126/538/136 130/539/136 132/540/136
f 133/541/137 131/542/137 127/543/137 129/544/137
usemtl m_ce64a2a9-1862-9bc8-ad10-4ffd77317fbd
f 105/545/138 104/546/138 23/547/138 24/548/138
usemtl none
f 27/549/139 13/550/139 19/551/139 28/552/139
f 24/553/140 23/554/140 27/555/140 28/556/140
usemtl m_ce64a2a9-1862-9bc8-ad10-4ffd77317fbd
f 23/557/141 104/558/141 13/559/141 27/560/141
f 19/561/142 105/562/142 24/563/142 28/564/142
usemtl none
f 105/565/143 104/566/143 13/567/143 19/568/143
f 94/569/144 104/570/144 105/571/144 95/572/144
usemtl m_ce64a2a9-1862-9bc8-ad10-4ffd77317fbd
f 19/573/145 13/574/145 134/575/145 135/576/145
f 13/577/146 104/578/146 94/579/146 134/580/146
f 95/581/147 105/582/147 19/583/147 135/584/147
usemtl none
f 95/585/148 94/586/148 134/587/148 135/588/148
f 136/589/149 98/590/149 99/591/149 137/592/149
f 98/593/150 94/594/150 95/595/150 99/596/150
usemtl m_ce64a2a9-1862-9bc8-ad10-4ffd77317fbd
f 135/597/151 134/598/151 136/599/151 137/600/151
f 134/601/152 94/602/152 98/603/152 136/604/152
f 99/605/153 95/606/153 135/607/153 137/608/153