# Made in Blockbench 4.12.4
mtllib rail.mtl

o cube
v 0.53125 0.1875 0.5625
v 0.53125 0.1875 0.4375
v 0.53125 0.0625 0.5625
v 0.53125 0.0625 0.4375
v 0.46875 0.1875 0.5625
v 0.46875 0.1875 0.4375
v 0.46875 0.0625 0.5625
v 0.46875 0.0625 0.4375
v 0.4375 0.0625 0.5625
v 0.4375 0.0625 0.4375
v 0.3125 0 0.5625
v 0.3125 0 0.4375
v 0.5625 0.0625 0.5625
v 0.5625 0.0625 0.4375
v 0.5625 0 0.5625
v 0.5625 0 0.4375
v 0.3125 0.03125 0.5625
v 0.3125 0.03125 0.4375
v 0.6875 0 0.5625
v 0.6875 0 0.4375
v 0.4375 0 0.5625
v 0.4375 0 0.4375
v 0.6875 0.03125 0.5625
v 0.6875 0.03125 0.4375
v 0.5625 0.21875000000000003 0.5625
v 0.5625 0.21875000000000003 0.4375
v 0.5625 0.265625 0.5625
v 0.5625 0.265625 0.4375
v 0.54375 0.27812499999999996 0.5625
v 0.54375 0.27812499999999996 0.4375
v 0.5249999999999999 0.28437499999999993 0.5625
v 0.5249999999999999 0.28437499999999993 0.4375
v 0.4375 0.21875000000000003 0.5625
v 0.4375 0.21875000000000003 0.4375
v 0.4375 0.265625 0.5625
v 0.4375 0.265625 0.4375
v 0.45625000000000004 0.27812499999999996 0.5625
v 0.45625000000000004 0.27812499999999996 0.4375
v 0.4750000000000001 0.28437499999999993 0.5625
v 0.4750000000000001 0.28437499999999993 0.4375
vt 1 0.15625
vt 1 0.28125
vt 0.875 0.28125
vt 0.875 0.15625
vt 1 0.15625
vt 1 0.28125
vt 0.875 0.28125
vt 0.875 0.15625
vt 0.21874999999999997 0.0625
vt 0.21874999999999997 0.1875
vt 0.15624999999999997 0.1875
vt 0.15624999999999997 0.0625
vt 0.21874999999999997 0.0625
vt 0.21874999999999997 0.1875
vt 0.15624999999999997 0.1875
vt 0.15624999999999997 0.0625
vt 0.875 0
vt 1 0
vt 1 0.1288499999999999
vt 0.875 0.1288499999999999
vt 0.75 0.03125
vt 0.75 0
vt 0.875 0
vt 0.875 0.03125
vt 0.875 0.1288499999999999
vt 0.875 0
vt 1 0
vt 1 0.1288499999999999
vt 0.75 0
vt 0.875 0
vt 0.875 0.03125
vt 0.75 0.03125
vt 0.875 0.2995562500000015
vt 1 0.2995562500000015
vt 1 0.34375000000000155
vt 0.875 0.34375000000000155
vt 0.875 0.359375
vt 1 0.359375
vt 1 0.40625
vt 0.875 0.40625
vt 0.875 0.4149624999999987
vt 1 0.4149624999999987
vt 1 0.43749999999999867
vt 0.875 0.43749999999999867
vt 0.875 0.44898749999999843
vt 1 0.44898749999999843
vt 1 0.46874999999999845
vt 0.875 0.46874999999999845
vt 0.875 0.34375
vt 0.875 0.29955624999999997
vt 1 0.29955624999999997
vt 1 0.34375
vt 0.875 0.40625
vt 0.875 0.359375
vt 1 0.359375
vt 1 0.40625
vt 0.875 0.4374999999999998
vt 0.875 0.4149624999999999
vt 1 0.4149624999999999
vt 1 0.4374999999999998
vt 0.875 0.46874999999999833
vt 0.875 0.4489874999999983
vt 1 0.4489874999999983
vt 1 0.46874999999999833
vt 0.8187499999999994 0.15625
vt 0.8687499999999995 0.15625
vt 0.8687499999999995 0.28125
vt 0.8187499999999994 0.28125
vt 0.125 0.265625
vt 0.14375 0.27812500000000007
vt 0.16249999999999998 0.28437500000000004
vt 0.125 0.21875
vt 0.21875000000000008 0.1874999999999999
vt 0.15624999999999994 0.1874999999999999
vt 0.12499999999999994 0.2187499999999999
vt 0.2500000000000002 0.2187499999999999
vt 0.23124999999999996 0.27812499999999984
vt 0.2500000000000001 0.2656249999999998
vt 0.2500000000000001 0.21874999999999978
vt 0.21249999999999997 0.2843749999999998
vt 0.125 0.21875
vt 0.16249999999999998 0.28437500000000004
vt 0.21250000000000002 0.28437500000000004
vt 0.24999999999999997 0.21875
vt 0.16249999999999998 0.28437500000000004
vt 0.14375 0.27812500000000007
vt 0.125 0.265625
vt 0.125 0.21875
vt 0.12499999999999994 0.2187499999999999
vt 0.15624999999999994 0.1874999999999999
vt 0.21875000000000008 0.1874999999999999
vt 0.2500000000000002 0.2187499999999999
vt 0.2500000000000001 0.21874999999999978
vt 0.2500000000000001 0.2656249999999998
vt 0.23124999999999996 0.27812499999999984
vt 0.21249999999999997 0.2843749999999998
vt 0.21250000000000002 0.28437500000000004
vt 0.16249999999999998 0.28437500000000004
vt 0.125 0.21875
vt 0.24999999999999997 0.21875
vt 0 0.03125
vt 0 0
vt 0.125 0
vt 0.125 0.0625
vt 0.25 0.0625
vt 0.25 0
vt 0.375 0
vt 0.375 0.03125
vt 0.21875 0.0625
vt 0.25 0.0625
vt 0.25 0
vt 0.125 0
vt 0.125 0.0625
vt 0.15625 0.0625
vt 0.15625 0.0625
vt 0.21875 0.0625
vt 0.25 0
vt 0.125 0
vt 0.84375 0.03125
vt 0.875 0.03125
vt 0.875 0.15625
vt 0.84375 0.15625
vt 0.84375 0.15625
vt 0.84375 0.03125
vt 0.875 0.03125
vt 0.875 0.15625
vt 0.125 0
vt 0.125 0.0625
vt 0.15625 0.0625
vt 0.21875 0.0625
vt 0.25 0.0625
vt 0.25 0
vt 0.125 0.0625
vt 0 0.03125
vt 0 0
vt 0.125 0
vt 0.25 0
vt 0.375 0
vt 0.375 0.03125
vt 0.25 0.0625
vt 0.15625 0.0625
vt 0.21875 0.0625
vt 0.25 0
vt 0.125 0
vt 0.75 0.125
vt 0.375 0.125
vt 0.375 0
vt 0.75 0
vn 1 0 0
vn -1 0 0
vn 0 0 1
vn 0 0 -1
vn -0.24253562503633297 0.9701425001453319 0
vn -1 0 0
vn 0.24253562503633297 0.9701425001453319 0
vn 1 0 0
vn -0.7071067811865479 -0.7071067811865472 0
vn -1 0 0
vn -0.5547001962252269 0.8320502943378454 0
vn -0.3162277660168362 0.9486832980505143 0
vn 0.7071067811865479 -0.7071067811865472 0
vn 1 0 0
vn 0.5547001962252269 0.8320502943378454 0
vn 0.3162277660168362 0.9486832980505143 0
vn 0 1 0
vn 0 0 -1
vn 0 0 -1
vn 0 0 -1
vn 0 0 -1
vn 0 0 1
vn 0 0 1
vn 0 0 1
vn 0 0 1
vn 0 0 -1
vn 0 0 -1
vn 0 0 -1
vn 0 0 -1
vn 0 0 -1
vn 0 1 0
vn 0 1 0
vn 0 0 1
vn 0 0 1
vn 0 0 1
vn 0 0 1
vn 0 0 1
vn 0 -1 0
usemtl m_24deccaf-f683-b3bd-cb0c-1a11e878796a
f 4/1/1 2/2/1 1/3/1 3/4/1
f 7/5/2 5/6/2 6/7/2 8/8/2
f 3/9/3 1/10/3 5/11/3 7/12/3
f 8/13/4 6/14/4 2/15/4 4/16/4
f 18/17/5 17/18/5 9/19/5 10/20/5
f 18/21/6 12/22/6 11/23/6 17/24/6
f 13/25/7 23/26/7 24/27/7 14/28/7
f 19/29/8 20/30/8 24/31/8 23/32/8
f 6/33/9 5/34/9 33/35/9 34/36/9
f 34/37/10 33/38/10 35/39/10 36/40/10
f 36/41/11 35/42/11 37/43/11 38/44/11
f 38/45/12 37/46/12 39/47/12 40/48/12
f 25/49/13 1/50/13 2/51/13 26/52/13
f 27/53/14 25/54/14 26/55/14 28/56/14
f 29/57/15 27/58/15 28/59/15 30/60/15
f 31/61/16 29/62/16 30/63/16 32/64/16
f 39/65/17 31/66/17 32/67/17 40/68/17
f 36/69/18 38/70/18 40/71/18 34/72/18
f 2/73/19 6/74/19 34/75/19 26/76/19
f 30/77/20 28/78/20 26/79/20 32/80/20
f 34/81/21 40/82/21 32/83/21 26/84/21
f 39/85/22 37/86/22 35/87/22 33/88/22
f 33/89/23 5/90/23 1/91/23 25/92/23
f 25/93/24 27/94/24 29/95/24 31/96/24
f 31/97/25 39/98/25 33/99/25 25/100/25
f 24/101/26 20/102/26 16/103/26 14/104/26
f 10/105/27 22/106/27 12/107/27 18/108/27
f 4/109/28 14/110/28 16/111/28
f 22/112/29 10/113/29 8/114/29
f 8/115/30 4/116/30 16/117/30 22/118/30
f 9/119/31 7/120/31 8/121/31 10/122/31
f 4/123/32 3/124/32 13/125/32 14/126/32
f 15/127/33 13/128/33 3/129/33
f 7/130/34 9/131/34 21/132/34
f 9/133/35 17/134/35 11/135/35 21/136/35
f 15/137/36 19/138/36 23/139/36 13/140/36
f 3/141/37 7/142/37 21/143/37 15/144/37
f 19/145/38 11/146/38 12/147/38 20/148/38